<?xml version="1.0" standalone="no"?>
<!DOCTYPE svg PUBLIC "-//W3C//DTD SVG 20010904//EN"
 "http://www.w3.org/TR/2001/REC-SVG-20010904/DTD/svg10.dtd">
<svg version="1.0" xmlns="http://www.w3.org/2000/svg"
 width="512.000000pt" height="512.000000pt" viewBox="0 0 512.000000 512.000000"
 preserveAspectRatio="xMidYMid meet">
<metadata>
Created by potrace 1.14, written by Peter Selinger 2001-2017
</metadata>
<g transform="translate(0.000000,512.000000) scale(0.100000,-0.100000)"
fill="#000000" stroke="none">
<path d="M2185 4839 c-22 -5 -65 -14 -95 -20 -103 -19 -175 -43 -240 -78 -36
-19 -67 -37 -70 -40 -3 -3 -14 -11 -25 -18 -180 -106 -261 -165 -329 -241 -28
-31 -64 -71 -80 -87 -27 -29 -76 -133 -76 -162 0 -8 -6 -24 -14 -36 -7 -12
-24 -63 -36 -114 -18 -77 -20 -98 -10 -127 6 -20 9 -40 6 -45 -3 -5 3 -30 14
-56 11 -26 20 -54 20 -63 0 -9 7 -30 15 -46 9 -16 13 -37 10 -48 -5 -12 -1
-18 10 -18 13 0 16 -6 11 -25 -4 -15 0 -34 9 -49 8 -12 20 -63 26 -112 6 -49
17 -96 24 -104 8 -8 15 -33 17 -55 2 -33 7 -41 26 -43 22 -3 22 -2 22 105 1
105 19 216 39 236 5 5 7 15 5 22 -7 17 25 145 42 170 8 11 14 26 14 35 0 8 14
35 30 60 16 25 30 41 30 36 0 -5 12 3 26 18 15 14 33 26 41 26 7 0 16 6 19 13
5 15 60 21 78 9 11 -7 51 -10 144 -13 28 -1 52 -6 52 -12 0 -6 5 -5 13 1 7 6
35 12 63 15 28 2 55 6 60 10 10 6 63 14 149 23 28 3 68 10 90 16 44 12 57 14
130 22 79 9 261 -25 328 -60 18 -9 48 -25 67 -35 19 -10 57 -21 85 -23 27 -3
51 -10 53 -15 2 -6 20 -8 40 -6 55 7 85 -24 103 -106 9 -39 26 -79 44 -104 17
-22 37 -56 44 -75 8 -19 18 -39 23 -45 4 -5 8 -17 8 -27 0 -10 4 -18 8 -18 11
0 32 -83 32 -129 0 -41 13 -57 69 -86 18 -9 36 -25 38 -36 13 -47 30 -4 52
131 6 36 22 106 36 155 14 50 28 110 32 135 3 25 12 55 20 67 8 12 12 26 9 32
-9 14 12 63 24 56 6 -4 10 5 10 21 0 15 -3 24 -7 21 -9 -9 -35 52 -27 64 3 5
10 6 16 3 8 -5 9 -1 5 10 -4 10 -7 22 -7 27 0 6 -4 8 -9 5 -4 -3 -6 5 -4 18 3
13 -2 30 -11 39 -9 8 -16 18 -16 22 0 8 -39 63 -67 95 -13 13 -23 31 -23 38 0
7 -15 19 -32 27 -18 8 -27 14 -20 15 7 0 12 13 12 30 0 17 5 30 10 30 13 0 13
47 0 55 -6 4 -8 11 -5 16 4 5 -1 12 -9 15 -9 3 -16 10 -16 15 0 16 22 9 41
-13 10 -13 18 -18 19 -11 0 22 -12 43 -25 43 -8 0 -15 10 -17 22 -2 12 -12 27
-24 33 -11 5 -28 18 -38 28 -36 36 -85 69 -95 63 -5 -4 -12 -2 -16 4 -4 6 -11
8 -16 5 -5 -3 -39 15 -76 41 -71 50 -217 123 -300 150 -28 10 -107 20 -193 24
-80 5 -176 13 -215 19 -116 18 -178 21 -220 10z"/>
<path d="M2888 3554 c-3 -3 -67 -7 -141 -10 -75 -2 -147 -8 -160 -13 -14 -6
-27 -7 -30 -5 -8 8 -105 -48 -131 -75 -13 -15 -26 -42 -29 -63 -4 -31 -1 -37
16 -42 12 -3 22 -4 22 -3 25 55 115 108 213 126 35 7 67 10 70 7 3 -3 -5 -6
-17 -6 -12 0 -24 -7 -28 -16 -4 -10 -8 -12 -12 -5 -5 8 -23 6 -59 -4 -29 -9
-50 -20 -47 -25 3 -6 -1 -7 -9 -4 -8 3 -30 -9 -52 -28 -29 -27 -37 -43 -39
-76 -2 -25 2 -45 10 -52 8 -6 11 -18 8 -27 -5 -12 -1 -14 15 -9 26 9 51 -3 32
-14 -7 -4 -9 -13 -6 -19 5 -7 28 -9 69 -5 34 4 89 8 122 9 33 1 73 3 88 4 22
1 30 8 38 31 11 30 24 36 47 22 9 -7 10 -15 3 -35 -12 -31 1 -36 34 -13 11 7
35 12 53 11 59 -3 51 21 -18 54 -68 34 -129 51 -185 51 -47 1 -49 2 -30 16 15
11 36 14 80 11 60 -4 100 -18 163 -58 22 -15 37 -18 43 -12 16 16 -52 66 -108
81 -26 7 -60 19 -75 27 -20 10 -28 10 -31 2 -3 -9 -8 -9 -18 1 -10 9 -10 12 0
12 7 0 9 5 5 12 -4 7 -3 8 4 4 6 -4 31 -1 54 6 59 16 78 20 116 20 26 -1 30 2
19 12 -7 7 -19 16 -27 19 -8 4 9 5 39 2 29 -2 64 -11 77 -20 57 -37 79 -7 29
40 -36 34 -65 45 -65 25 0 -6 -10 -4 -23 5 -13 8 -27 12 -30 9 -4 -4 -13 -1
-22 6 -8 7 -21 10 -30 7 -8 -4 -17 -2 -20 3 -7 11 -19 13 -27 4z m-193 -342
c-11 -11 -34 8 -28 24 6 15 7 15 20 -1 7 -10 11 -21 8 -23z"/>
<path d="M1565 3480 c-23 -14 -48 -32 -56 -40 -22 -24 -52 -81 -45 -87 3 -3
29 6 58 20 32 15 79 27 118 31 45 4 56 3 35 -3 -16 -5 -50 -16 -75 -24 l-45
-15 45 1 c25 1 48 6 52 11 12 17 159 7 165 -11 5 -14 -20 -28 -65 -36 -58 -11
-129 -47 -150 -77 -30 -40 -11 -47 30 -12 49 44 93 62 148 65 58 2 68 -15 13
-25 -44 -7 -123 -39 -123 -50 0 -3 -14 -9 -30 -13 -17 -4 -28 -10 -25 -15 3
-5 -3 -11 -14 -15 -22 -7 -36 -34 -18 -37 7 0 23 -2 37 -3 14 -2 32 -6 41 -10
10 -3 20 -2 23 4 4 6 13 8 21 4 18 -6 20 18 3 36 -11 10 -8 16 11 32 32 26 39
24 55 -15 17 -42 32 -51 73 -47 20 1 33 -2 33 -9 0 -6 -4 -9 -9 -6 -5 3 -14 0
-20 -8 -9 -11 -9 -15 1 -18 23 -8 -9 -35 -60 -49 l-47 -13 35 -7 c19 -4 55 -3
79 2 24 5 46 7 49 5 2 -3 19 6 36 20 18 16 32 22 34 15 6 -19 22 -1 22 24 0
16 8 27 28 34 24 10 23 10 -13 5 -63 -9 -95 -8 -95 5 0 7 96 22 143 22 15 0
18 5 13 25 -5 19 -3 24 13 24 23 0 37 16 20 22 -9 3 -9 10 0 27 27 49 -16 102
-109 135 l-45 17 40 -7 c80 -12 129 -55 150 -130 12 -44 13 -46 14 -17 1 17 6
35 11 38 16 10 1 25 -18 18 -15 -6 -16 -5 -2 12 16 19 15 62 -3 83 -16 20 -62
41 -104 48 -21 3 -42 9 -48 14 -15 11 -154 23 -279 24 -98 1 -112 -1 -151 -24z
m225 -60 c-14 -4 -36 -8 -50 -9 -20 -1 -22 1 -10 9 8 5 31 9 50 9 32 -1 33 -2
10 -9z m63 3 c-7 -2 -19 -2 -25 0 -7 3 -2 5 12 5 14 0 19 -2 13 -5z"/>
<path d="M2323 3333 c9 -2 23 -2 30 0 6 3 -1 5 -18 5 -16 0 -22 -2 -12 -5z"/>
<path d="M2198 3323 c7 -3 16 -2 19 1 4 3 -2 6 -13 5 -11 0 -14 -3 -6 -6z"/>
<path d="M2400 3316 c14 -8 29 -12 33 -9 12 8 -14 23 -38 22 -18 0 -17 -1 5
-13z"/>
<path d="M3160 3307 c0 -15 3 -17 13 -8 8 6 16 8 19 5 3 -3 9 -1 12 4 3 5 -5
12 -19 14 -20 4 -25 1 -25 -15z"/>
<path d="M3240 3311 c8 -6 23 -11 33 -11 13 0 17 -8 17 -32 0 -18 7 -85 16
-148 11 -82 14 -148 9 -230 -4 -63 -9 -149 -11 -190 -3 -41 -6 -88 -8 -105 -7
-50 -36 -150 -46 -153 -5 -2 -6 -10 -3 -18 3 -8 1 -14 -4 -14 -6 0 -16 -19
-23 -42 -9 -30 -15 -37 -18 -24 -2 10 1 23 7 29 6 6 11 24 11 40 0 25 -2 28
-15 17 -12 -10 -15 -10 -15 1 0 10 -3 10 -12 1 -10 -10 -10 -17 -1 -32 11 -16
9 -19 -17 -25 -17 -4 -30 -13 -30 -21 0 -8 -4 -14 -10 -14 -10 0 -4 69 10 110
19 57 20 55 -25 52 -40 -4 -42 -6 -59 -53 -10 -27 -22 -49 -27 -49 -5 0 -9 -7
-9 -15 0 -18 -46 -21 -54 -2 -3 6 -3 2 0 -11 7 -27 -11 -53 -32 -45 -9 3 -14
-2 -14 -17 l0 -23 -19 25 c-19 24 -31 94 -18 114 3 6 3 14 -1 18 -4 4 -8 11
-8 14 -9 43 -46 83 -59 62 -3 -5 -19 -1 -35 8 -25 14 -33 15 -50 4 -17 -10
-24 -10 -40 1 -11 8 -17 17 -12 22 4 5 1 5 -6 1 -7 -4 -20 -2 -29 6 -15 11
-16 11 -10 -5 6 -15 4 -16 -13 -7 -23 12 -53 66 -47 83 2 7 -3 18 -12 25 -12
10 -13 15 -3 19 7 2 20 12 28 21 15 14 15 17 -2 29 -41 30 -161 0 -207 -52
-29 -33 -31 -33 -58 -20 -25 14 -29 13 -38 -2 -8 -15 -14 -13 -49 19 -50 46
-101 57 -139 33 l-26 -18 24 -18 c13 -10 31 -19 40 -19 9 0 22 -6 28 -14 10
-12 8 -13 -8 -9 -26 7 -54 -15 -46 -35 3 -9 -10 -29 -35 -52 -32 -29 -46 -36
-70 -32 -17 2 -36 -1 -43 -6 -7 -6 -23 -9 -35 -5 -26 6 -106 -52 -98 -73 3 -7
-2 -18 -10 -24 -14 -13 -20 -35 -6 -27 4 3 7 -20 7 -51 0 -51 2 -57 20 -54 27
5 8 -13 -24 -23 -18 -6 -22 -4 -15 6 6 11 4 11 -10 -1 -16 -12 -19 -12 -27 2
-5 9 -17 14 -28 11 -14 -3 -20 2 -26 24 -7 31 -21 43 -50 43 -14 0 -16 -3 -8
-8 17 -11 24 -70 9 -75 -12 -5 -15 21 -15 111 -1 28 -5 52 -11 52 -5 0 -10 -9
-10 -21 0 -12 -4 -17 -11 -13 -8 4 -9 0 -4 -15 10 -33 -3 -63 -26 -56 -16 6
-19 1 -20 -32 0 -21 -3 -32 -6 -25 -2 6 -12 12 -21 12 -8 0 -13 3 -9 6 3 4 -2
23 -13 44 -11 21 -21 55 -24 76 -2 22 -5 39 -6 39 -1 0 -4 20 -6 44 -2 25 -9
48 -15 52 -7 4 -9 17 -6 30 3 13 2 28 -3 34 -5 6 -12 31 -14 56 -3 24 -12 80
-20 124 -8 44 -16 100 -16 125 0 29 -3 40 -9 32 -28 -45 57 -535 116 -672 38
-87 45 -102 81 -160 31 -51 207 -232 216 -222 9 8 66 -43 62 -55 -3 -7 -1 -13
4 -13 6 0 10 5 10 11 0 5 5 7 10 4 6 -4 8 -11 5 -16 -4 -5 1 -9 9 -9 9 0 15
-5 14 -11 -2 -5 15 -21 37 -33 31 -18 39 -29 37 -47 -1 -13 1 -19 5 -13 5 6
15 10 23 8 8 -2 30 -7 48 -10 17 -4 32 -11 32 -17 0 -8 4 -7 11 0 9 9 27 4 73
-20 34 -17 63 -34 66 -38 3 -3 21 -11 40 -18 31 -10 71 -42 108 -85 10 -13 9
-19 -8 -36 -21 -21 -35 -27 -25 -10 3 6 2 10 -3 10 -5 0 -14 -11 -20 -25 -9
-20 -9 -25 2 -25 9 0 12 -7 9 -20 -3 -11 -9 -20 -14 -20 -5 0 -9 -7 -9 -15 0
-9 -10 -15 -26 -15 -20 0 -24 -4 -19 -19 3 -11 1 -22 -5 -26 -6 -3 -8 -11 -4
-16 4 -6 11 -6 20 2 9 8 14 8 14 1 0 -6 -7 -15 -16 -20 -14 -8 -14 -11 7 -26
18 -12 20 -16 7 -16 -14 0 -15 -4 -7 -30 6 -16 15 -30 19 -30 5 0 11 -8 15
-19 3 -11 19 -21 37 -25 27 -5 29 -8 17 -23 -12 -15 -12 -16 4 -10 11 4 25 -1
38 -14 15 -15 28 -19 47 -14 29 7 44 24 35 38 -3 4 4 11 16 14 12 3 21 13 21
24 0 11 6 22 14 25 16 6 15 52 -1 63 -6 3 -13 16 -17 28 -6 17 -3 20 12 17 10
-3 29 4 43 15 18 16 20 20 8 21 -9 0 -24 11 -33 25 -20 30 -20 35 -1 35 8 0
15 7 15 15 0 8 -7 15 -15 15 -19 0 -19 11 -1 36 13 17 13 22 0 42 -15 23 -15
24 6 17 16 -5 21 -3 18 6 -2 7 4 21 14 31 11 11 17 26 13 37 -9 31 55 83 140
112 89 31 125 58 125 94 0 14 6 25 13 25 7 0 21 16 31 35 11 19 24 35 30 36
16 0 209 224 223 258 7 16 18 33 24 37 8 4 4 11 -12 20 l-24 14 25 -3 c23 -2
27 5 48 73 13 41 26 82 29 90 8 20 9 23 27 118 9 46 18 88 21 92 3 5 22 6 43
4 l37 -5 -32 15 c-41 19 -46 40 -31 123 6 37 11 73 9 78 -15 48 -10 145 8 145
14 0 63 -78 56 -89 -3 -6 1 -14 10 -18 25 -9 34 13 34 82 -1 81 -5 92 -39 99
-17 3 -41 13 -55 22 -24 16 -25 21 -21 80 3 50 9 70 30 95 15 17 25 37 23 43
-4 15 -94 63 -132 71 -23 5 -26 4 -15 -4z m-585 -851 c39 -31 39 -31 10 -25
-17 3 -50 8 -75 12 -25 3 -49 9 -55 13 -14 11 -150 3 -173 -9 -31 -16 -119 5
-100 24 3 4 37 8 74 10 147 9 239 17 243 20 5 6 31 -9 76 -45z m-486 -5 c-13
-7 -37 -15 -54 -18 -16 -3 -45 -10 -62 -16 -33 -10 -39 -6 -25 15 7 11 86 28
136 30 l29 1 -24 -12z m933 -75 c-5 -13 -7 -12 -10 3 -2 9 -8 15 -13 12 -11
-7 -11 -3 -3 19 6 15 8 15 19 -1 7 -9 10 -24 7 -33z m-511 -16 c8 -7 30 -14
49 -17 19 -3 58 -11 85 -18 45 -13 53 -19 75 -62 22 -43 23 -49 9 -60 -9 -7
-14 -18 -11 -25 2 -7 -2 -20 -10 -29 -9 -12 -9 -15 0 -9 16 10 15 1 -4 -36
-13 -25 -14 -35 -4 -54 12 -21 9 -27 -41 -73 -30 -28 -60 -50 -66 -51 -7 0
-13 -5 -13 -12 0 -9 -3 -9 -12 0 -8 8 -15 9 -25 1 -10 -9 -15 -5 -22 14 -5 14
-15 28 -22 33 -9 5 -10 2 -6 -10 6 -14 4 -15 -14 -5 -17 9 -23 8 -30 -2 -6
-11 -9 -10 -15 4 -8 21 -27 22 -44 3 -6 -8 -17 -13 -25 -10 -7 3 -16 0 -20 -6
-6 -9 -10 -9 -16 1 -6 11 -11 11 -21 1 -19 -19 -62 -16 -54 4 4 10 1 14 -6 11
-7 -2 -12 -11 -12 -20 1 -9 -3 -14 -9 -10 -14 9 -79 13 -91 5 -21 -13 -45 -8
-49 10 -5 19 -37 25 -37 7 0 -8 -5 -7 -15 1 -9 7 -19 9 -23 5 -4 -4 -1 -10 6
-12 21 -8 13 -25 -8 -18 -11 4 -20 2 -20 -4 0 -6 -7 -8 -15 -5 -8 4 -12 10 -9
15 3 5 10 7 15 4 5 -4 9 -1 9 5 0 8 -7 9 -17 5 -43 -18 -61 -17 -73 5 -11 20
-12 20 -24 4 -13 -17 -42 -11 -31 7 7 10 -19 52 -26 44 -3 -2 -4 12 -4 31 1
20 -5 42 -12 50 -10 10 -11 14 -2 14 9 0 8 4 -1 15 -7 8 -9 15 -5 15 4 0 2 7
-5 15 -7 9 -10 18 -7 21 9 10 -30 47 -42 40 -7 -4 -8 -1 -5 8 3 9 13 16 22 16
8 0 13 3 9 6 -6 6 34 42 90 81 24 17 40 21 63 17 22 -5 36 -2 51 12 27 24 82
29 330 29 131 0 201 -4 210 -11z m489 -25 c0 -4 -7 -9 -15 -13 -11 -4 -15 2
-15 26 0 30 1 31 15 12 8 -10 15 -22 15 -25z m80 -15 c0 -8 -4 -12 -10 -9 -5
3 -10 10 -10 16 0 5 5 9 10 9 6 0 10 -7 10 -16z m40 -85 c0 -4 -7 -6 -15 -3
-8 4 -15 10 -15 15 0 4 7 6 15 3 8 -4 15 -10 15 -15z m-1637 -33 c3 -8 3 -17
0 -20 -9 -9 -34 15 -27 25 8 13 21 11 27 -5z m1591 -22 c3 -8 2 -12 -4 -9 -6
3 -10 10 -10 16 0 14 7 11 14 -7z m-1003 -257 c-10 -9 -11 -8 -5 6 3 10 9 15
12 12 3 -3 0 -11 -7 -18z m404 -607 c-5 -14 -2 -20 10 -20 9 0 13 -4 10 -10
-4 -6 -13 -5 -25 2 -14 9 -16 16 -9 30 13 24 22 23 14 -2z m-125 -104 c0 -8
12 -17 28 -19 27 -4 27 -4 -3 -6 -29 -1 -55 13 -55 31 0 4 7 8 15 8 8 0 15 -6
15 -14z m90 -21 c0 -8 -4 -15 -10 -15 -5 0 -10 7 -10 15 0 8 5 15 10 15 6 0
10 -7 10 -15z"/>
<path d="M2415 2250 c-10 -3 -71 -5 -137 -3 -67 2 -117 -1 -114 -6 3 -4 -3
-16 -14 -26 -20 -18 -29 -72 -10 -60 5 3 12 -6 16 -20 4 -16 13 -25 25 -25 10
0 19 -4 19 -9 0 -21 188 -33 213 -13 6 5 27 13 45 17 18 4 32 13 32 21 0 8 4
14 9 14 6 0 8 9 6 20 -2 11 2 20 8 20 7 0 2 8 -9 18 -12 9 -20 24 -19 34 3 18
-39 29 -70 18z"/>
<path d="M1475 3290 c3 -5 8 -10 11 -10 2 0 4 5 4 10 0 6 -5 10 -11 10 -5 0
-7 -4 -4 -10z"/>
<path d="M1437 3250 c-4 -15 -14 -20 -36 -20 -17 0 -31 -4 -31 -9 0 -5 -8 -11
-17 -14 -16 -3 -16 -5 2 -11 46 -17 50 -22 46 -62 -1 -21 -5 -41 -7 -43 -2 -2
-15 4 -30 14 -34 22 -46 6 -36 -50 4 -22 6 -59 6 -82 -1 -24 2 -43 6 -43 4 0
15 25 26 55 13 41 20 51 25 38 4 -12 9 -1 13 32 9 65 24 125 25 103 1 -10 4
-18 9 -18 4 0 7 29 7 65 0 36 0 65 -1 65 -1 0 -4 -9 -7 -20z"/>
<path d="M2147 3177 c-3 -28 -8 -60 -12 -69 -12 -31 13 -20 29 12 9 19 13 44
9 65 -9 54 -20 50 -26 -8z"/>
<path d="M2423 3194 c4 -39 34 -100 44 -90 3 2 -3 18 -11 35 -9 16 -16 38 -16
48 0 10 -5 25 -11 33 -8 11 -9 5 -6 -26z"/>
<path d="M3456 3185 c-22 -18 -27 -27 -19 -37 6 -7 20 -44 33 -81 12 -38 24
-66 26 -64 3 2 6 17 9 33 2 16 7 49 10 74 7 44 -6 100 -22 100 -5 -1 -21 -11
-37 -25z"/>
<path d="M1462 3188 c6 -18 28 -21 28 -4 0 9 -7 16 -16 16 -9 0 -14 -5 -12
-12z"/>
<path d="M2111 3178 c-1 -16 4 -28 9 -28 12 0 12 8 0 35 -8 18 -9 17 -9 -7z"/>
<path d="M2473 3193 c-16 -6 -17 -33 -3 -33 11 0 26 28 19 34 -2 2 -10 1 -16
-1z"/>
<path d="M2575 3159 c4 -5 36 -24 72 -40 80 -37 172 -48 223 -27 l35 14 -80
14 c-44 7 -92 14 -107 15 -14 1 -38 9 -52 18 -28 19 -101 24 -91 6z"/>
<path d="M1785 3130 c3 -5 13 -10 21 -10 8 0 12 5 9 10 -3 6 -13 10 -21 10 -8
0 -12 -4 -9 -10z"/>
<path d="M3380 3114 c0 -9 5 -14 12 -12 18 6 21 28 4 28 -9 0 -16 -7 -16 -16z"/>
<path d="M2650 2814 c0 -8 5 -12 10 -9 6 3 10 1 10 -6 0 -13 41 -59 53 -59 4
0 7 7 7 15 0 8 -4 15 -10 15 -5 0 -10 6 -10 13 0 14 -35 47 -50 47 -6 0 -10
-7 -10 -16z"/>
<path d="M3480 2779 c0 -5 5 -7 10 -4 6 3 10 8 10 11 0 2 -4 4 -10 4 -5 0 -10
-5 -10 -11z"/>
<path d="M2730 2725 c0 -15 18 -40 24 -34 3 3 -1 14 -9 25 -8 10 -14 15 -15 9z"/>
<path d="M1580 2419 c0 -11 4 -18 10 -14 5 3 7 12 3 20 -7 21 -13 19 -13 -6z"/>
<path d="M1490 2360 c0 -5 5 -10 10 -10 6 0 10 5 10 10 0 6 -4 10 -10 10 -5 0
-10 -4 -10 -10z"/>
<path d="M1641 2354 c0 -11 3 -14 6 -6 3 7 2 16 -1 19 -3 4 -6 -2 -5 -13z"/>
<path d="M1525 2330 c-3 -5 -1 -10 4 -10 6 0 11 5 11 10 0 6 -2 10 -4 10 -3 0
-8 -4 -11 -10z"/>
<path d="M1065 2110 c-3 -6 1 -7 9 -4 18 7 21 14 7 14 -6 0 -13 -4 -16 -10z"/>
<path d="M1104 2064 c3 -9 6 -18 6 -20 0 -3 5 -2 10 1 16 10 12 35 -6 35 -11
0 -14 -5 -10 -16z"/>
<path d="M3137 1924 c-9 -9 3 -86 25 -161 19 -63 20 -79 10 -122 -13 -57 -139
-317 -178 -369 -47 -61 -133 -107 -307 -163 -89 -29 -167 -57 -174 -63 -7 -6
-17 -51 -23 -101 -6 -49 -14 -93 -18 -96 -4 -4 -31 -9 -59 -11 l-53 -5 0 54
c0 30 -5 74 -11 99 -13 52 -30 63 -129 88 -36 9 -100 33 -143 53 -62 29 -81
43 -94 71 -9 18 -23 37 -32 40 -34 13 -147 155 -188 235 -19 39 -27 77 -36
180 l-12 132 -38 -75 c-33 -66 -54 -90 -174 -202 l-136 -126 -141 -62 c-183
-80 -543 -261 -616 -310 -61 -40 -299 -170 -312 -170 -8 0 -45 -16 -82 -35
-36 -19 -66 -31 -66 -27 0 3 -13 -7 -28 -23 -49 -52 -97 -89 -109 -87 -10 2
-13 -70 -13 -333 l0 -335 2560 0 2560 0 0 465 c0 407 -2 465 -15 465 -8 0 -15
5 -15 11 0 5 -30 24 -67 40 -94 41 -175 81 -193 95 -8 6 -53 26 -100 43 -47
18 -107 43 -135 56 -112 53 -450 162 -630 204 -49 12 -101 25 -115 30 -14 5
-45 14 -70 21 -135 37 -207 67 -245 99 -98 86 -212 203 -272 278 -62 80 -114
128 -126 117z m-641 -1287 c23 -13 16 -25 -15 -23 -36 2 -50 13 -27 22 9 3 16
14 17 23 0 13 2 13 6 1 3 -8 12 -19 19 -23z m-37 -62 c11 -19 16 -35 11 -35
-7 0 -40 54 -40 67 0 10 10 -1 29 -32z"/>
<path d="M3340 1915 c-7 -8 -8 -15 -2 -15 5 0 15 7 22 15 7 8 8 15 2 15 -5 0
-15 -7 -22 -15z"/>
<path d="M1160 1875 c14 -16 40 -20 40 -6 0 9 -24 21 -42 21 -6 0 -6 -6 2 -15z"/>
<path d="M1440 1730 c0 -5 5 -10 11 -10 5 0 7 5 4 10 -3 6 -8 10 -11 10 -2 0
-4 -4 -4 -10z"/>
<path d="M953 1384 c27 -14 51 -23 54 -20 6 5 -76 46 -91 46 -6 -1 11 -12 37
-26z"/>
</g>
</svg>
